<svg width="24" height="24" viewBox="0 0 24 24" xmlns="http://www.w3.org/2000/svg"><g id="Page-1" stroke="none" stroke-width="1" fill="none" fill-rule="evenodd"><g id="order_icons" transform="translate(-292 -190)"><g id="returned" transform="translate(240 182)"><g id="ic_return" transform="translate(52 8)"><path id="cont_24x24" d="M0 0h24v24H0z"/><path d="M7.688 2l-6 6L1 8.719l.688.719 6 6L9.124 14 4.844 9.719h11.062c2.755 0 5 2.245 5 5 0 2.754-2.245 5-5 5h-2v2h2c3.846 0 7-3.155 7-7 0-3.846-3.154-7-7-7H4.844l4.281-4.282L7.687 2zM1.905 19.719v2h2v-2h-2zm4 0v2h2v-2h-2zm4 0v2h2v-2h-2z" id="Shape" fill="#FFF"/></g></g></g></g></svg>